<svg xmlns:xlink="http://www.w3.org/1999/xlink" xmlns="http://www.w3.org/2000/svg" id="logosandtypes_com" viewBox="0 0 150 150" width="482"  height="482" ><style>.st1{fill:#2c9ac8}</style><path d="M0 0h150v150H0V0z" fill="none" id="Layer_3"/><g id="logosandtypes_com"><path class="st1" d="M20.9 74.7c0 21.6 12.5 40.2 30.7 49.1L25.7 52.4c-3.1 6.9-4.8 14.3-4.8 22.3zM112.4 72c0-6.7-2.5-11.4-4.5-15-2.8-4.5-5.4-8.3-5.4-12.8 0-5 3.8-9.6 9.2-9.6h.7c-9.8-8.9-22.6-14.3-36.9-14.3-19.1 0-35.8 9.8-45.6 24.6h3.5c5.7 0 14.6-.7 14.6-.7 2.9-.1 3.4 4.1.3 4.5 0 0-2.9.3-6.3.6l19.8 59.2 11.9-35.8-8.5-23.3c-2.9-.1-5.7-.6-5.7-.6-2.9-.1-2.6-4.7.3-4.5 0 0 9 .7 14.4.7 5.7 0 14.6-.7 14.6-.7 2.9-.1 3.4 4.1.3 4.5 0 0-2.9.3-6.3.6l19.7 58.7 5.4-18.2c2.7-7.9 4.5-13.3 4.5-17.9z"/><path class="st1" d="M76.5 79.4L60.1 127c5 1.5 10.1 2.2 15.4 2.2 6.4 0 12.4-1.2 18.1-3.1-.1-.3-.3-.4-.4-.7l-16.7-46zM123.4 48.5c.3 1.7.4 3.6.4 5.7 0 5.5-1 11.8-4.1 19.5l-16.6 48.2c16.2-9.5 27.1-27.1 27.1-47.2-.1-9.4-2.5-18.5-6.8-26.2z"/><path class="st1" d="M75.5 11c-35.1 0-63.7 28.6-63.7 63.7s28.6 63.7 63.7 63.7 63.7-28.6 63.7-63.7S110.6 11 75.5 11zm0 124.3c-33.5 0-60.8-27.2-60.8-60.8S42 13.8 75.5 13.8s60.8 27.2 60.8 60.8-27.3 60.7-60.8 60.7z"/></g></svg>